<?xml version="1.0" encoding="utf-8"?>
<!-- Generator: Adobe Illustrator 22.0.1, SVG Export Plug-In . SVG Version: 6.00 Build 0)  -->
<svg version="1.1" id="Capa_2" xmlns="http://www.w3.org/2000/svg" xmlns:xlink="http://www.w3.org/1999/xlink" x="0px" y="0px"
	 viewBox="0 0 792 612" style="enable-background:new 0 0 792 612;" xml:space="preserve">
<style type="text/css">
	.st0{fill:none;stroke:#FFFFFF;stroke-miterlimit:10;}
</style>
<g>
	<g>
		<path class="st0" d="M125.7,370.9c0,0,117.3-6.5,138.4,6.1c1.4,0.8,2.4,1.8,2.9,2.8c7.7,16.4-5.7,3.5-5.7-5.3
			c0-8.8,4.6-84.8-6.2-87s-24.8-14.9-23.2-21.6l0.5-50.6c0,0,136.2,10.4,141.9,0c0,0,39.7-83.4,15-78.2
			c-24.8,5.2-30.4,12.7-37.7,23.8c-7.2,11.2-12.9,67-66.5,53.6c0,0-63.4,2.2-41.8-27.5s119.2-32,119.2-32s5.7,7.4-16,39.5
			c0,0-23.2,32.8,12.4,33.5c35.6,0.7,86.7-10.4,86.7-10.4s-5.2,40.2,14.4,36.5l10.3,0.7c0,0,7.2,19.4-4.6,17.9
			c-11.9-1.5-85.1,6-85.1,6s-10.8-11.7-22.7-16.3c-11.9-4.6-67.6-3.6-66.5,0c1,3.6,55.2,6.6,85.1,7.3c29.9,0.7,39.2,29,39.2,29
			s-5.2,65.5,6.7,72.2c11.9,6.7,18.1,1.5,15.5,10.4s-17.5,3-16-20.1c1.5-23.1-2.6-58.8,26.8-69.2c0,0,18.9-17.4-10-1.5
			c0,0-17.9,18.4-20.6,4.5c-2.8-13.9,47.8-16.4,47.8-16.4s-19.6,10.4-8.3,47.6c11.3,37.2-3.4,36.2-3.4,36.2s-18.9-0.5-9.3-14.9
			c0,0,6.5-6.5,18.6-2.5c0,0,2.1-31.9-5.2-52.1c0,0,4.8-3,25.8,21.8c21,24.8,15.5,18.4,6.5,31.8c0,0-26.5-42.4-27.2-55.1
			c-0.7-12.7,40.6-7.9,40.6-7.9s14.8,20.8,22.4-5c0,0,1.4-60.5-18.6-73.4c0,0-27.2,5.5-31.6-6.9c-4.5-12.4,4.1-32.3,11-27.8
			s13.1,4,6.9,43.7c0,0-9.3,15.4,8.9,30.3c0,0,2.8,14.4-16.9,8.9s-12.7,13.1-5.2,9c0,0,22.4-6.6,22.7,4.9c0.3,11.4,0,30.3-9.3,33.3
			c-9.3,3,0,27.8,6.2,5s31-3.5,30.6,10.4c-0.3,13.9-4.7,42.1,6.5,42.2l146.2,1.7"/>
		<ellipse class="st0" cx="266" cy="280.7" rx="23.2" ry="7.1"/>
		
			<ellipse transform="matrix(0.7025 -0.7116 0.7116 0.7025 -98.6914 458.7891)" class="st0" cx="499.5" cy="347.5" rx="13.9" ry="6.8"/>
	</g>
	<ellipse class="st0" cx="402.1" cy="288.2" rx="292.4" ry="261"/>
</g>
</svg>
