<?xml version="1.0" encoding="UTF-8" standalone="no"?>
<svg
   xmlns:dc="http://purl.org/dc/elements/1.1/"
   xmlns:cc="http://creativecommons.org/ns#"
   xmlns:rdf="http://www.w3.org/1999/02/22-rdf-syntax-ns#"
   xmlns:svg="http://www.w3.org/2000/svg"
   xmlns="http://www.w3.org/2000/svg"
   xmlns:sodipodi="http://sodipodi.sourceforge.net/DTD/sodipodi-0.dtd"
   xmlns:inkscape="http://www.inkscape.org/namespaces/inkscape"
   height="588"
   width="588.79999"
   inkscape:version="1.0 (4035a4fb49, 2020-05-01)"
   sodipodi:docname="logo_defecto_numen_alt.svg"
   xml:space="preserve"
   viewBox="0 0 588.79999 588"
   y="0px"
   x="0px"
   id="Capa_2"
   version="1.1"><metadata
   id="metadata95"><rdf:RDF><cc:Work
       rdf:about=""><dc:format>image/svg+xml</dc:format><dc:type
         rdf:resource="http://purl.org/dc/dcmitype/StillImage" /><dc:title></dc:title></cc:Work></rdf:RDF></metadata><defs
   id="defs93" /><sodipodi:namedview
   fit-margin-bottom="0"
   fit-margin-right="0"
   fit-margin-left="0"
   fit-margin-top="0"
   inkscape:showpageshadow="false"
   borderlayer="false"
   showborder="true"
   inkscape:pagecheckerboard="false"
   inkscape:current-layer="Capa_2"
   inkscape:window-maximized="1"
   inkscape:window-y="-8"
   inkscape:window-x="-8"
   inkscape:cy="325.56984"
   inkscape:cx="188.21609"
   inkscape:zoom="0.98209275"
   showgrid="false"
   id="namedview91"
   inkscape:window-height="1017"
   inkscape:window-width="1920"
   inkscape:pageshadow="2"
   inkscape:pageopacity="1"
   guidetolerance="10"
   gridtolerance="10"
   objecttolerance="10"
   borderopacity="1"
   bordercolor="#666666"
   pagecolor="#000000" />
<style
   id="style76"
   type="text/css">
	.st0{fill:none;stroke:#FFFFFF;stroke-miterlimit:10;}
</style>
<g
   transform="translate(-107.70003,6.7999737)"
   style="stroke-width:4;stroke-miterlimit:10;stroke-dasharray:none"
   id="g88">
	<g
   style="stroke-width:4;stroke-miterlimit:10;stroke-dasharray:none"
   id="g84">
		<path
   style="stroke-width:4;stroke-miterlimit:10;stroke-dasharray:none"
   id="path78"
   d="m 125.7,370.9 c 0,0 117.3,-6.5 138.4,6.1 1.4,0.8 2.4,1.8 2.9,2.8 7.7,16.4 -5.7,3.5 -5.7,-5.3 0,-8.8 4.6,-84.8 -6.2,-87 -10.8,-2.2 -24.8,-14.9 -23.2,-21.6 l 0.5,-50.6 c 0,0 136.2,10.4 141.9,0 0,0 39.7,-83.4 15,-78.2 -24.8,5.2 -30.4,12.7 -37.7,23.8 -7.2,11.2 -12.9,67 -66.5,53.6 0,0 -63.4,2.2 -41.8,-27.5 21.6,-29.7 119.2,-32 119.2,-32 0,0 5.7,7.4 -16,39.5 0,0 -23.2,32.8 12.4,33.5 35.6,0.7 86.7,-10.4 86.7,-10.4 0,0 -5.2,40.2 14.4,36.5 l 10.3,0.7 c 0,0 7.2,19.4 -4.6,17.9 -11.9,-1.5 -85.1,6 -85.1,6 0,0 -10.8,-11.7 -22.7,-16.3 -11.9,-4.6 -67.6,-3.6 -66.5,0 1,3.6 55.2,6.6 85.1,7.3 29.9,0.7 39.2,29 39.2,29 0,0 -5.2,65.5 6.7,72.2 11.9,6.7 18.1,1.5 15.5,10.4 -2.6,8.9 -17.5,3 -16,-20.1 1.5,-23.1 -2.6,-58.8 26.8,-69.2 0,0 18.9,-17.4 -10,-1.5 0,0 -17.9,18.4 -20.6,4.5 -2.8,-13.9 47.8,-16.4 47.8,-16.4 0,0 -19.6,10.4 -8.3,47.6 11.3,37.2 -3.4,36.2 -3.4,36.2 0,0 -18.9,-0.5 -9.3,-14.9 0,0 6.5,-6.5 18.6,-2.5 0,0 2.1,-31.9 -5.2,-52.1 0,0 4.8,-3 25.8,21.8 21,24.8 15.5,18.4 6.5,31.8 0,0 -26.5,-42.4 -27.2,-55.1 -0.7,-12.7 40.6,-7.9 40.6,-7.9 0,0 14.8,20.8 22.4,-5 0,0 1.4,-60.5 -18.6,-73.4 0,0 -27.2,5.5 -31.6,-6.9 -4.5,-12.4 4.1,-32.3 11,-27.8 6.9,4.5 13.1,4 6.9,43.7 0,0 -9.3,15.4 8.9,30.3 0,0 2.8,14.4 -16.9,8.9 -19.7,-5.5 -12.7,13.1 -5.2,9 0,0 22.4,-6.6 22.7,4.9 0.3,11.4 0,30.3 -9.3,33.3 -9.3,3 0,27.8 6.2,5 6.2,-22.8 31,-3.5 30.6,10.4 -0.3,13.9 -4.7,42.1 6.5,42.2 l 146.2,1.7"
   class="st0" />
		<ellipse
   style="stroke-width:4;stroke-miterlimit:10;stroke-dasharray:none"
   id="ellipse80"
   ry="7.0999999"
   rx="23.200001"
   cy="280.70001"
   cx="266"
   class="st0" />
		
			<ellipse
   style="stroke-width:4.00024;stroke-miterlimit:10;stroke-dasharray:none"
   id="ellipse82"
   ry="6.8000002"
   rx="13.9"
   cy="347.5"
   cx="499.5"
   class="st0"
   transform="matrix(0.7025,-0.7116,0.7116,0.7025,-98.6914,458.7891)" />
	</g>
	<ellipse
   style="stroke-width:4.22922;stroke-miterlimit:10;stroke-dasharray:none"
   id="ellipse86"
   ry="291.88538"
   rx="292.28537"
   cy="287.20001"
   cx="402.10001"
   class="st0" />
</g>
</svg>
