<?xml version="1.0" encoding="UTF-8" standalone="no"?>
<svg
   xmlns:dc="http://purl.org/dc/elements/1.1/"
   xmlns:cc="http://creativecommons.org/ns#"
   xmlns:rdf="http://www.w3.org/1999/02/22-rdf-syntax-ns#"
   xmlns:svg="http://www.w3.org/2000/svg"
   xmlns="http://www.w3.org/2000/svg"
   xmlns:sodipodi="http://sodipodi.sourceforge.net/DTD/sodipodi-0.dtd"
   xmlns:inkscape="http://www.inkscape.org/namespaces/inkscape"
   inkscape:version="1.0 (4035a4fb49, 2020-05-01)"
   height="280"
   width="280"
   sodipodi:docname="logo_casa_prod_alt.svg"
   xml:space="preserve"
   viewBox="0 0 280 280"
   y="0px"
   x="0px"
   id="Capa_1"
   version="1.1"><metadata
   id="metadata989"><rdf:RDF><cc:Work
       rdf:about=""><dc:format>image/svg+xml</dc:format><dc:type
         rdf:resource="http://purl.org/dc/dcmitype/StillImage" /><dc:title></dc:title></cc:Work></rdf:RDF></metadata><defs
   id="defs987" /><sodipodi:namedview
   inkscape:current-layer="Capa_1"
   inkscape:window-maximized="1"
   inkscape:window-y="-8"
   inkscape:window-x="-8"
   inkscape:cy="172.53315"
   inkscape:cx="149.90424"
   inkscape:zoom="1.9974747"
   fit-margin-bottom="0"
   fit-margin-right="0"
   fit-margin-left="0"
   fit-margin-top="0"
   inkscape:pagecheckerboard="false"
   inkscape:showpageshadow="false"
   showgrid="false"
   id="namedview985"
   inkscape:window-height="1017"
   inkscape:window-width="1920"
   inkscape:pageshadow="2"
   inkscape:pageopacity="0"
   guidetolerance="10"
   gridtolerance="10"
   objecttolerance="10"
   borderopacity="1"
   bordercolor="#ffffff"
   pagecolor="#000000" />
<style
   id="style928"
   type="text/css">
	.st0{fill:#FFFFFF;}
	.st1{fill:#AF853C;}
	.st2{fill:#0A0A0A;}
</style>
<path
   id="path930"
   d="m 61.253293,253.35688 c -0.5,-2.6 2.2,-3.3 3.1,-5.1 1.5,-2.6 1.5,-4.2 -1.1,-5.8 3.8,-0.2 4.9,1.1 3,4.7 -1.3,2.5 -2.4,5 -5,6.2 z"
   class="st0" />
<path
   id="path932"
   d="m 62.053293,242.55688 c -1.3,1.9 -3.4,0.5 -5,1 1.3,-2.1 3.4,-0.6 5,-1 z"
   class="st0" />
<g
   transform="matrix(0.90378381,0,0,0.9996984,-229.33217,-136.90181)"
   id="g982">
	<path
   d="m 382.90625,415.12109 a 155.69658,139.92667 0 0 0 0.96289,0.14063 155.69658,139.92667 0 0 0 1.0625,0.15039 155.69658,139.92667 0 0 0 1.06445,0.14258 155.69658,139.92667 0 0 0 1.06641,0.13672 155.69658,139.92667 0 0 0 1.06641,0.13086 155.69658,139.92667 0 0 0 1.0664,0.12304 155.69658,139.92667 0 0 0 1.06836,0.11719 155.69658,139.92667 0 0 0 1.07031,0.10938 155.69658,139.92667 0 0 0 1.06836,0.10351 155.69658,139.92667 0 0 0 1.07227,0.0957 155.69658,139.92667 0 0 0 1.07031,0.0918 155.69658,139.92667 0 0 0 1.07227,0.082 155.69658,139.92667 0 0 0 1.07226,0.0781 155.69658,139.92667 0 0 0 1.07422,0.0703 155.69658,139.92667 0 0 0 1.07422,0.0625 155.69658,139.92667 0 0 0 1.07422,0.0566 155.69658,139.92667 0 0 0 1.07422,0.0508 155.69658,139.92667 0 0 0 1.07422,0.043 155.69658,139.92667 0 0 0 1.07617,0.0371 155.69658,139.92667 0 0 0 1.07422,0.0293 155.69658,139.92667 0 0 0 1.07617,0.0234 155.69658,139.92667 0 0 0 1.07617,0.0176 155.69658,139.92667 0 0 0 1.07617,0.01 155.69658,139.92667 0 0 0 1.07617,0.004 155.69658,139.92667 0 0 0 0.28907,-0.002 155.69658,139.92667 0 0 0 1.07617,-0.004 155.69658,139.92667 0 0 0 1.07617,-0.0117 155.69658,139.92667 0 0 0 1.07617,-0.0195 155.69658,139.92667 0 0 0 1.07618,-0.0254 155.69658,139.92667 0 0 0 1.07617,-0.0312 155.69658,139.92667 0 0 0 1.07422,-0.0391 155.69658,139.92667 0 0 0 1.07421,-0.0449 155.69658,139.92667 0 0 0 1.07618,-0.0508 155.69658,139.92667 0 0 0 1.07422,-0.0586 155.69658,139.92667 0 0 0 1.07226,-0.0664 155.69658,139.92667 0 0 0 1.07422,-0.0723 155.69658,139.92667 0 0 0 1.07226,-0.0781 155.69658,139.92667 0 0 0 1.07227,-0.084 155.69658,139.92667 0 0 0 1.07031,-0.0937 155.69658,139.92667 0 0 0 1.07032,-0.0977 155.69658,139.92667 0 0 0 1.07031,-0.10547 155.69658,139.92667 0 0 0 1.06836,-0.11133 155.69658,139.92667 0 0 0 1.06836,-0.11914 155.69658,139.92667 0 0 0 0.12304,-0.0137 c 1.59264,-0.27871 3.18867,-0.44342 4.78321,-0.61719 a 155.69658,139.92667 0 0 0 0.41797,-0.0605 155.69658,139.92667 0 0 0 1.0625,-0.1582 155.69658,139.92667 0 0 0 1.06054,-0.16406 155.69658,139.92667 0 0 0 1.0586,-0.17188 155.69658,139.92667 0 0 0 1.05859,-0.17773 155.69658,139.92667 0 0 0 1.05664,-0.18555 155.69658,139.92667 0 0 0 1.05469,-0.18945 155.69658,139.92667 0 0 0 1.05273,-0.19922 155.69658,139.92667 0 0 0 1.05274,-0.20313 155.69658,139.92667 0 0 0 1.04882,-0.21093 155.69658,139.92667 0 0 0 1.04883,-0.2168 155.69658,139.92667 0 0 0 1.04688,-0.22461 155.69658,139.92667 0 0 0 1.04492,-0.22852 155.69658,139.92667 0 0 0 1.04492,-0.23828 155.69658,139.92667 0 0 0 1.04102,-0.24218 155.69658,139.92667 0 0 0 1.03906,-0.25 155.69658,139.92667 0 0 0 1.03711,-0.25586 155.69658,139.92667 0 0 0 1.03711,-0.26172 155.69658,139.92667 0 0 0 1.0332,-0.26953 155.69658,139.92667 0 0 0 1.03125,-0.27539 155.69658,139.92667 0 0 0 1.0293,-0.28125 155.69658,139.92667 0 0 0 1.02734,-0.28907 155.69658,139.92667 0 0 0 1.02539,-0.29492 155.69658,139.92667 0 0 0 1.02344,-0.30078 155.69658,139.92667 0 0 0 1.01953,-0.30664 155.69658,139.92667 0 0 0 1.01758,-0.3125 155.69658,139.92667 0 0 0 1.01562,-0.32031 155.69658,139.92667 0 0 0 1.01368,-0.32617 155.69658,139.92667 0 0 0 1.00976,-0.33204 155.69658,139.92667 0 0 0 1.00782,-0.33984 155.69658,139.92667 0 0 0 1.00585,-0.34375 155.69658,139.92667 0 0 0 1.00391,-0.35156 155.69658,139.92667 0 0 0 0.99805,-0.35742 155.69658,139.92667 0 0 0 0.99804,-0.36329 155.69658,139.92667 0 0 0 0.99415,-0.37109 155.69658,139.92667 0 0 0 0.99218,-0.375 155.69658,139.92667 0 0 0 0.98828,-0.38281 155.69658,139.92667 0 0 0 0.98633,-0.38867 155.69658,139.92667 0 0 0 0.98242,-0.39453 155.69658,139.92667 0 0 0 0.97852,-0.4004 155.69658,139.92667 0 0 0 0.97656,-0.40624 155.69658,139.92667 0 0 0 0.97266,-0.41211 155.69658,139.92667 0 0 0 0.9707,-0.41797 155.69658,139.92667 0 0 0 0.9668,-0.42578 155.69658,139.92667 0 0 0 0.13867,-0.0625 c -0.26683,-1.90632 -0.53608,-3.78497 -1.90039,-5.24024 -8.5,-10.2 -14.4,-21.6 -15.5,-34.5 -1,-11.6 -4.8,-24.30156 8,-33.10156 1.2,-0.9 1.79961,-2.39922 2.59961,-3.69922 7.1,-10.7 12.10078,-22.00078 13.30078,-34.80078 0.8,-8 2.20078,-8.69883 10.80078,-7.79883 3.5,0.4 6.99961,1.49961 10.59961,0.59961 2,-0.5 3.2,-1.7 3.5,-3.5 0.2,-1.5 -0.79961,-2.40039 -2.09961,-2.90039 C 499.70078,274.99961 495,270.1 491.5,264 c -0.9,-1.5 -2.80039,-2.90078 -4.40039,-1.30078 -3.6,3.8 -9.49922,6.10156 -9.19922,12.60156 0.1,1.3 -0.0996,2.79922 -1.09961,4.19922 -1.6,-2.6 -0.90078,-5.30039 -0.30078,-7.90039 0.9,-3.9 2.60078,-7.59961 3.30078,-11.59961 1,-5.3 -1.40117,-7.29961 -6.70117,-5.59961 -6.3,2 -10.50039,6.29883 -13.40039,11.79883 -1,1.9 -2.5,3.80078 -0.5,5.80078 2.2,2.2 4.10078,-0.20039 6.30078,-0.90039 -0.6,3 -1.89961,5.10117 -3.59961,7.20117 -1.5,1.9 -4.60117,2.8 -4.20117,6 0.4,4 -2.19844,3.69883 -5.39844,3.29883 2,-2.6 4.1,-4.5 6,-6.5 3.3,-3.6 2.69922,-5.40039 -2.30078,-6.40039 -5.2,-1.1 -10.19961,0.10117 -15.09961,1.70117 -2.8,0.9 -2.70078,2.79961 -0.80078,5.09961 -4.4,-3.2 -9.29922,-4.00078 -14.19922,-4.30078 0.4,-2.3 2.20039,-2.49883 3.40039,-3.29883 1.6,-1.1 3.89961,-1.90078 3.09961,-4.30078 -0.8,-2.1 -3.09961,-2.30039 -5.09961,-2.40039 -4.8,-0.3 -9.00039,1.40078 -11.90039,4.80078 -5.8,6.9 -11.59961,13.50039 -21.59961,14.90039 -0.9,0.1 -1.80039,0.59961 -1.90039,1.59961 -0.1,1.4 1.19922,1.60039 2.19922,1.90039 0.65,0.15 1.30078,0.27422 1.92578,0.32422 -9.86076,0.77971 -14.2066,-7.1497 -20.52539,-12.52539 2.4,-0.9 5.20078,-0.79883 4.80078,-3.79883 -0.4,-2.6 -2.3,-3.90078 -5,-4.30078 -2.6,-0.4 -5.4,0.20117 -9,-0.79883 5.1,-1.4 5.09922,-1.4 14.19922,2 1.4,0.5 3.10078,1.39961 4.30078,0.0996 1.2,-1.3 0.3,-2.79961 -0.5,-4.09961 -4.3,-7.4 -14.60156,-10.20156 -22.60156,-6.10156 -1.8,0.9 -3.39922,2.10039 -5.19922,2.90039 -1.2,0.6 -2.4,1.20039 -3.5,1.90039 -4.7,3.7 -2.19922,6.69922 1.30078,9.19922 6.7,4.9 13.4,9.80039 20,14.90039 8.4,6.6 17.69961,9.00117 28.59961,8.70117 7.8,-0.2 13.99922,-1.00078 17.19922,-8.80078 1.4,-3.4 4.5,-6.20039 9,-4.90039 4.9,1.3 5.89961,5 5.59961,9.5 -0.7,9.6 -3.29961,18.20117 -11.59961,24.70117 -1.9,1.5 -5.79883,4.09883 -1.29883,6.29883 4.3,2.2 3.49844,4.60078 2.39844,7.80078 -2.2,6.3 -5.9,11.80039 -11,16.40039 -7.1,6.4 -15.6,10.49961 -24.5,14.09961 -8,3.2 -16.29961,5.89883 -25.09961,6.79883 -8.4,0.9 -11.49961,-1.89883 -11.09961,-9.79883 0.1,-2.4 3.9e-4,-4.60078 -2.09961,-6.30078 -2.3,-1.9 -1.8,-2.99883 1,-3.79883 2.2,-0.6 5.69961,-0.20078 5.59961,-3.30078 -0.1,-3.1 -3.79922,-2.90039 -6.19922,-3.90039 -1,-0.4 -2.10117,-0.7 -3.20117,-1 -2.6,-0.8 -3.29961,-2.09883 -2.59961,-4.79883 1.7,-6.3 0.8,-7.30117 -6,-7.20117 -2.3,0.1 -4.49922,0.40078 -6.69922,0.80078 -4,0.7 -6,-0.90117 -6,-4.70117 0,-4.5 -0.6,-8.99883 0.5,-13.29883 3.6,-15 -3.6,-28.60078 -6,-42.80078 -0.1,-1.2 -0.70078,-2.69922 -2.30078,-2.69922 -2,0.1 -2.20078,1.89883 -2.30078,3.29883 -0.4,5.3 -0.39961,10.50078 0.40039,15.80078 1.8,11.4 4.60117,22.8 2.20117,34.5 -0.7,3.7 -0.30039,7.60039 0.0996,11.40039 0.4,3.4 2.09883,6.79883 5.79883,6.79883 6.8,0.1 9.10156,4.1 11.10156,9 2.1,5 6.79883,8.70117 7.29883,14.70117 0.8,9.2 4.80039,12.8 14.40039,15 6.4,1.5 12.90039,1.19883 19.40039,1.29883 3.2,0.1 6.69883,0.40156 7.29883,4.10156 1.2,8.2 4.20039,16.4 2.40039,25 -0.53886,2.42488 -2.84887,4.00381 -3.69336,6.32031 z"
   style="display:inline;fill:#ffffff"
   id="path1040" /><path
   style="display:inline"
   id="path936"
   d="m 387.5,410.7 c -0.8,2.4 -3,3.7 -5,5.2 -10.6,-3.3 -21.6,-4.8 -32,-8.9 -48,-18.6 -80.8,-50.7 -92.5,-98.5 -10.4,-42.1 -1.9,-81.7 27.4,-116.2 24.5,-28.8 56.2,-46.4 94.9,-52.8 42.3,-7 81.5,0.3 117.1,22.8 34,21.4 55.8,51.3 63.4,89 7.8,38.8 -1,75.1 -25.9,107 -13.8,17.7 -31.3,31.9 -52.3,41.9 -1.7,0.8 -3.8,1.2 -5,2.8 -1.5,-1.4 -2.4,-3.1 -2.6,-5.1 0,-3.3 3.2,-3.8 5.4,-4.9 42.3,-22.3 68.1,-55.6 74.5,-101 4.6,-32.5 -4,-62.5 -24.2,-89.2 -25.8,-34.1 -61.4,-52.8 -105.2,-58 -60.4,-7.2 -126.5,23.2 -152.5,81 -21,46.6 -14.3,91 18.5,131.2 22.2,27.3 52.2,43.1 87.6,50.4 2.9,0.7 6.2,0.7 8.4,3.3 z"
   class="st1" />
	
	<path
   style="display:inline"
   id="path938"
   d="m 387.5,410.7 c -35.7,-5.3 -66.6,-19.6 -91,-44.9 -18.9,-19.6 -31.4,-42.6 -35.3,-69.2 -5.7,-38.7 4.6,-73 31,-103.2 23.4,-26.8 53.5,-42.4 89.3,-48.7 44.3,-7.8 84.6,2.1 120.1,27.4 30.1,21.4 48.6,50.2 54.2,85.9 6,37.7 -4.5,71.1 -29.1,100.9 -13,15.7 -29,28.1 -48.1,36.8 -1.3,0.6 -2.5,1.6 -3.8,2.4 -9,-8.3 -13.1,-18.9 -16,-30.1 -2.3,-9.1 -1.1,-18.3 -1.4,-27.5 -0.1,-2.7 1,-5 3,-6.6 13.2,-10.7 18.9,-24.9 21.1,-40.6 0.4,-3.3 2.1,-6.3 1.6,-9.8 -0.4,-2.9 2.3,-1.8 3.8,-2 5.3,-0.6 10.5,0.6 15.8,1.2 2.2,0.2 4.7,0.5 5,-2.5 0.3,-2.6 -2.5,-1.5 -3.6,-1.9 -7.8,-3.1 -12.1,-9 -15.8,-17.1 -1.4,3.4 -2.3,5.8 -3.2,8.1 -1.8,-0.2 0,-2.7 -1.8,-2.9 -2.2,-0.3 -1.3,1.6 -1.9,2.5 -2.7,4.6 -1.4,10.2 -4.4,14.6 -5.4,-4.8 -3.4,-10.4 -1.7,-15.8 0.9,-2.7 1.9,-5.4 2.4,-8.2 0.2,-1.5 2.1,-3.2 0.2,-4.3 -1.3,-0.7 -3.2,0.1 -5,0.6 -7.3,2.1 -9.9,8.3 -13.9,13.4 -0.9,1.1 -0.1,1.9 0.7,2.6 1.4,1.3 1.8,-0.2 2.5,-0.7 1.8,-1.5 3.5,-3.1 5.8,-5.2 -0.7,8 -3.4,14 -11,17.8 2,0.2 3.5,0.4 5.6,0.7 -3.1,2.4 -5.8,4.6 -8.7,6.8 -1.8,-0.2 0.2,-2.7 -1.6,-3 -1.2,-0.2 -1.7,3 -3.1,0.8 -0.9,-1.4 0.7,-2.7 1.8,-3.7 2.9,-2.6 5.9,-5.1 9.3,-8.1 -8.1,-2.8 -14.8,-0.7 -21.7,0.8 0.5,0.7 0.7,1.1 0.9,1.4 1.1,1.7 6.1,-0.1 4.6,3.3 -1.5,3.4 -5.2,0.9 -6.7,-0.5 -4.7,-4.6 -10.8,-2.6 -16.6,-3.5 1.4,-5.6 7.9,-5.3 11.2,-8.7 -8.3,-2.4 -13.3,-1.4 -17.3,4 -5.6,7.7 -12.1,14.1 -22.9,14.9 3.5,0 7,0 10.9,0 -6.6,5.4 -12.9,5.4 -19.3,-0.2 -4.5,-4 -9.3,-7.8 -12.1,-13.4 2.6,0 5,2.5 7.4,0.5 0.8,-0.7 -0.3,-1.4 -0.5,-2.1 -1.1,-3.8 -4.3,-2 -6.6,-2.2 -3.1,-0.3 -6.2,-0.1 -9.4,-0.1 5.3,-7.6 6.7,-7.6 21.5,-0.2 -4.2,-9.4 -14.9,-15.1 -23.9,-7.5 -1,0.8 -1.9,1.8 -3.5,1.2 -0.8,-2.3 1.2,-3.4 2.5,-4.7 3.3,-3.2 1.1,-4.3 -2.1,-4.6 -4.3,-0.5 -7.7,1.7 -11.1,3.7 3.3,-0.5 6.3,-2.1 9.6,-2.6 1.4,-0.2 2.9,-0.2 3.6,0.9 0.8,1.3 -0.1,2.4 -1,3.4 -1.5,1.8 -3.8,3 -4.4,5.4 -4,2.5 -2.9,4.8 0.3,7 9.2,6.6 18.4,13.2 27.7,19.6 3.3,2.3 7.2,3.8 11.5,3.7 3.1,0 6.3,-0.3 9.4,0 7.3,0.8 12.9,-0.1 15.7,-7.9 1.7,-4.9 6.3,-7.7 12.1,-5.6 5.6,2 6.4,6 5.9,11.7 -0.7,7.8 -2.9,14.7 -7.1,21.3 -2.2,3.4 -7.2,4 -9,8 9,0.6 8.8,0.6 6.2,8.5 -4.5,13.6 -14.8,22.1 -27.6,28.5 -10.7,5.4 -22.2,8.8 -34,11.4 -10.8,2.4 -15.9,-2.6 -13.8,-13.1 0.5,-2.4 -0.1,-4.2 -3,-4.5 -2.1,-0.2 -3.3,-1.1 -3.5,-3.1 -0.4,-3.3 2.9,-2 4.3,-2.6 2.2,-1 5.1,-0.8 8.8,-1.2 -4.1,-3.1 -8.4,-3.6 -12.2,-4.4 -4.6,-0.9 -6.5,-1.5 -2.7,-5.6 1.4,-1.5 1.9,-3.6 2.8,-5.5 -5.7,-1.5 -10.9,0.3 -16.3,0.9 -3.7,0.4 -4.8,-0.7 -5,-4.4 -0.5,-8.8 1.4,-17.5 1.5,-26.3 0.1,-5.2 -0.6,-10.2 -2.7,-15.1 -2.7,-6.2 -2.6,-13.1 -4.8,-20.6 -2,12.7 0.8,24 2.6,35.3 0.7,4.8 0.9,9.3 0,14.1 -1,5.1 -0.3,10.5 -0.4,15.7 -0.1,4.6 2.4,6.5 7,6.2 4.6,-0.3 8.9,-0.3 7.9,6 -0.1,0.6 0.8,1.4 1.1,2.1 3.3,6.3 8.9,11.3 8.6,19.6 -0.3,7 8.7,11.3 20.2,11.6 4.9,0.1 9.9,0.2 14.8,0 3.2,-0.1 6,1.3 6.1,3.7 0.3,8.7 3.7,17.1 2.9,25.9 0.2,1.2 -0.7,2.3 -1.2,3.4 z"
   class="st2" />
	<path
   id="path940"
   d="m 427.7,404.4 c 1.6,-5.8 3,-10.6 4.4,-15.5 0.3,-1.1 2.3,-2.1 0.7,-3.2 -1.3,-0.9 -2.8,-0.4 -4.1,0.8 -4.2,4.1 -8.4,8.2 -12.8,12 -4.4,3.9 -9.1,7.6 -15.1,9.2 -1.8,0.5 -3.3,1.1 -3.7,-1.7 -1.2,-8.5 -2.6,-17 -4,-25.5 -0.5,-3.1 1,-5.2 3.8,-6.6 10.6,-5.4 21.2,-10.9 31.9,-16.3 4.7,-2.4 7.8,-1.2 10.5,3.2 6.9,11.3 4.2,34.7 -11.6,43.6 z"
   class="st2" />
	<path
   id="path942"
   d="m 353.9,266.3 c -1.7,-1.6 -2.4,-2.8 0.6,-4 1.9,-0.8 3.4,-2.6 6.3,-4.8 -7.8,0.4 -12.8,3.7 -18.7,4.5 4.3,-7.1 11.9,-9.6 19.6,-7.1 3.6,1.2 3,2.2 0.9,4.1 -2,1.9 -3.9,4 -5.8,6 -0.5,1 -1.6,1.3 -2.9,1.3 z"
   class="st0" />
	<path
   id="path944"
   d="m 460.4,310.5 c -0.1,-8.5 2.7,-14.5 7.2,-19.9 0.8,-0.9 1.7,-2.2 3.3,-1 0.6,0.5 1.6,1.6 1.5,1.9 -3.9,5.8 -4.1,13.7 -12,19 z"
   class="st2" />
	<path
   id="path946"
   d="m 473.7,307.4 c -2.4,3.6 -2.4,6.5 -6.3,7.1 0.8,-2.9 2.1,-4.9 6.3,-7.1 z"
   class="st2" />
	<path
   id="path948"
   d="m 441.5,216.7 c -0.5,-0.7 -0.9,-1.4 -1.5,-2 -0.9,-1.1 -3.1,-1.9 -2.3,-3.5 1.3,-2.4 2.8,1.5 4.5,0.3 -3.8,-4.9 -4.6,-5.1 -10.8,-3.8 -6.3,1.4 -12.5,-0.3 -18.4,-1.3 -5.5,-1 -9.6,0.3 -13.8,2.8 -5.8,3.4 -10.5,7.9 -14,13.7 6.1,1.1 9.4,-2.7 13.1,-5.3 6.9,-4.9 10.9,-4.8 16.6,1.3 4.3,4.6 9.3,7.1 16.1,6.9 11.9,-0.3 23.4,3.1 35.2,3.7 1.7,0.1 2.5,0.6 2.2,2.2 -0.2,1.3 -0.7,1.9 -2.2,1.3 -6.9,-2.9 -11.4,1.2 -15.5,5.1 -2.7,2.7 -5.6,2.9 -9,2.8 -1.7,0 -3.7,-0.4 -3.8,-1.8 -0.2,-1.4 1.6,-2.2 3.4,-2.1 1.2,0.1 2.5,-0.1 4.4,-0.2 -14.7,-9.7 -27.8,0.1 -41.6,1.7 0.8,-3.4 5.3,-2.8 6,-6.5 -3.4,0.1 -6.5,0 -10,0.9 -6.1,1.6 -11.3,-0.8 -16,-5 -10.6,-9.2 -18.6,-20.4 -27.2,-31.1 -2.5,-3.1 -4.9,-6.3 -7.5,-9.3 -2.3,-2.6 -5.2,-2.6 -7.7,-0.2 -2.7,2.7 0.9,3.5 2.1,4.9 9.4,11.1 19.9,21.3 30.5,31.5 7.1,6.8 15.6,11.9 23.7,17.7 -7.1,0 -14,-1.5 -20.6,-3.7 -12.2,-4.1 -24.2,-8.5 -36.4,-12.6 -13.4,-4.5 -21.2,-0.3 -24.4,12.8 -1.1,4.3 -2.2,8.6 -4.1,12.9 -1.5,-7 -2.5,-14.2 1.8,-20.7 3.3,-5 6.8,-10.2 14,-11.2 1.4,-0.2 3,-1.2 3.8,-2.2 2.7,-3.4 5.3,-2.1 8.6,-0.8 11,4.1 20.7,10.7 32,15 -0.4,-2.5 -1.5,-4.1 -3.1,-5.5 -9.1,-7.6 -15.8,-17.5 -25.7,-24.4 -3,-2.1 -6.5,-3.3 -9.6,-5.1 -6.1,-3.7 -5.7,-10.5 0.9,-13.8 11.2,-5.7 15.5,-4.8 23,7 3.5,5.6 6.3,5.6 11.7,2.6 4.9,-2.7 9.9,-5.8 16.2,-6.9 -1.7,5.5 -10,4.7 -10.5,11.1 3.9,-0.4 6.3,-2.9 8.9,-4.6 6.7,-4.3 13.3,-5.3 20.8,-1.3 6.9,3.6 14.2,6.8 22.6,7 -9.3,2.2 -18.2,-0.5 -26.8,-2.2 -15.1,-3.1 -20,1.5 -22.4,16.3 1.3,-1.7 2.6,-3.5 3.9,-5.2 6.6,-8.5 20,-9.1 28.9,-5.1 8.2,3.6 15.9,1.8 23.8,0.6 8,-1.3 13.7,0.7 18.7,7 2.7,3.5 6,6.6 11.6,5.5 -7.1,-5.5 -14,-10.8 -21,-16.1 -0.5,-0.4 -1.4,-0.5 -1.5,-0.9 -1.9,-5.4 -1.9,-5.4 -8.7,-5.5 -5.4,0 -10.8,-0.1 -16.1,0 -4.1,0.1 -7.6,-1.6 -11.2,-3 -1.3,-0.5 -1.9,-1.6 -1.8,-3.1 0.1,-2 1.8,-1.2 2.9,-1.6 6.1,-2.6 12.7,0.1 18.8,-2 1.1,-0.4 2.1,0.7 2.4,1.8 0.6,2.6 -3.4,0.4 -3.2,2.9 14.8,-1.8 24.6,4.4 32.6,16.1 5,7.3 13.5,12.4 17.6,20.8 0.7,1.5 2,1.8 4.2,1.2 3.2,-0.9 5.8,-2.8 9,-3.7 1.4,2.9 -0.5,4.3 -3.3,5.2 1.8,1.9 3.3,-0.2 4.9,0.1 0.1,0.5 0.2,1.2 0.1,1.3 -10.6,4.6 -8.6,13.2 -8,21.5 0.1,1.4 1.2,3.5 -1.1,4.4 -2.1,0.8 -3.2,-0.8 -4.5,-2 -4.2,-3.5 -4.2,-3.5 -13.4,-2.2 1.9,-4.6 5.3,-6.6 10.3,-5.9 0.7,-2.5 -8,-4.9 0.3,-7.2 1.5,-0.4 -0.6,-3.9 -1.8,-5.3 -2.8,-3.2 -6.3,-6 -9.4,-9 -1.3,-1.3 -2.9,-1.8 -4.1,-0.9 -6.8,5.5 -11.6,1.1 -16.5,-2.8 -1.6,0.7 -2,0 -1.6,-1.3 z"
   class="st0" />
	<path
   id="path950"
   d="m 507.5,231.6 c -4.6,1.1 -8.1,2.1 -11.6,2.9 -1,0.2 -2.8,0 -3,-0.6 -0.7,-1.4 0.6,-2.5 1.8,-2.9 3,-1.1 6.1,-2.2 9.2,-2.7 4.5,-0.8 5,-2.7 2.2,-6 9.4,3 10.8,10.1 3.7,16.9 -1.1,1 -2.2,2.2 -3.5,2.8 -1.2,0.6 -2.8,1.1 -2.4,2.4 0.5,1.5 2.4,1.9 4,1.5 3.1,-0.8 6,-2.2 8.7,-4 2.5,-1.7 5.4,-1.8 7.8,0.5 0.3,0.3 0.2,0.8 0.5,1.1 2.3,2 -3.7,4.6 1,6.9 3.2,1.6 3.6,5.5 2.8,9 -5,0 -3.6,-10 -11.4,-6 -4.1,2.1 -8.9,3 -13.4,4.5 1.2,3.3 8.3,0.1 6.7,6.7 4,-3.2 4.6,-7.9 9.3,-9.8 1.6,2.3 0.6,4.9 0.9,7.2 0.2,1.4 0,3.1 0.7,4.2 1,1.7 5.4,2.3 2.8,4.9 -2.7,2.7 -4.6,6.6 -9.8,6.7 -8.1,0.1 -14.8,-1.4 -17.4,-9.9 4.2,-1.3 6.1,3.1 9.6,3.8 1.5,0.3 3,1.7 3.8,-0.2 1,-2.5 -1.8,-0.9 -2.7,-1.7 -6,-5 -13.9,-8.3 -15.8,-16.8 -0.1,-0.3 -0.9,-0.6 -1.4,-0.6 -1.9,0 -2.2,-1.1 -2,-2.5 0.4,-2.3 2.6,-1.6 3.7,-1.3 2.5,0.9 5,1.6 8.8,0.5 -4.8,-1.2 -8.5,-2.7 -12.4,-3.1 -3.7,-0.4 -4.3,-2.1 -4.3,-5 0,-3.6 2.3,-3.8 5.3,-4.1 6.1,-0.4 13.3,3 17.8,-5.3 z"
   class="st0" />
	<path
   id="path952"
   d="m 386.1,267.9 c 11.9,6.5 20.5,2.8 28.2,-4.5 2.2,-2.1 4.1,-4.8 6.7,-6.1 4.3,-2.2 5.4,-4.3 1.1,-7.7 8,-3.5 11.6,1.8 15,6 6.8,8.4 11,10.1 21,7.1 -2.6,9.5 -5.5,12.2 -12.7,11.1 -4,-0.6 -6.9,-3.3 -9.7,-5.9 -8.6,-8 -14.5,-7.5 -21.2,2.1 -2,2.9 -3.9,5.9 -5.9,8.7 -0.7,1 -1.8,1.8 -2.8,2.7 -2.5,2.1 -5.5,2.3 -7.7,0.2 -3.6,-3.3 3.8,-2.1 2.2,-4.8 -9.6,-1 -10.4,-1.5 -14.2,-8.9 z"
   class="st0" />
	<path
   id="path954"
   d="m 383.5,256 c -1.3,-2.9 -5.3,0.7 -6.7,-3 10.7,-2.4 21.2,-4.7 32.9,-7.3 -3.6,4 -7.7,5.5 -12.7,8.2 7.2,0.4 11.2,-2.6 14,-6.4 10.3,-13.8 22.8,-10.1 29.6,0.7 1.2,1.9 3.5,3.2 5,5 3.6,4.3 7.4,3.6 11.3,0.5 1.4,-1.1 2.5,-2.4 3.9,-3.5 0.8,-0.7 1.7,-0.3 2.3,0.4 0.5,0.5 1.6,1.1 0.5,1.9 -3.9,2.7 -4.9,8.6 -11.1,8.8 -5.4,0.2 -9.2,-1.5 -11.7,-6.3 -1.4,-2.7 -4.1,-4.8 -6,-7.4 -5.3,-7.4 -13.3,-7.5 -18.9,-0.2 -3,3.9 -6,7.8 -11,10.1 -4.5,2 -8.6,0.5 -12.6,-0.3 -3,-0.6 -6.1,-0.6 -9,-1.4 z"
   class="st0" />
	<path
   id="path956"
   d="m 335.8,287.4 c 10.2,0.9 17.5,3.3 25,5.3 4.4,1.2 3,2.8 0.9,3.7 -5.9,2.5 -9.8,6.9 -14.2,11 -1.7,1.6 -4.7,1.5 -6.2,0.4 -5.3,-3.8 -9.9,-8.9 -11.9,-14.4 -1.5,-3.8 3.5,-6.9 6.4,-6 z"
   class="st0" />
	<path
   id="path958"
   d="m 326,240.4 c 3.7,-4.4 7.6,-0.3 11.3,-0.8 -3.7,-5.3 -3.7,-5.3 -12,-3.9 5.1,-7.7 7,-8.1 13.4,-2.3 3.4,3.2 6.5,4.4 11.4,2 8.4,-4 12.3,-2.3 15.6,6 -5.9,-3.7 -11.1,-2.8 -16.4,0.5 -5.6,3.5 -11.7,4.6 -17.4,0.1 -1.7,-1.4 -3.8,-0.5 -5.9,-1.6 z"
   class="st0" />
	<path
   id="path960"
   d="m 383.3,255.8 c 6.4,2.5 11.3,8.4 19.5,6.8 3.3,-0.6 5.3,-3.2 9,-4.2 -1.5,4 -3.1,7.3 -6.3,9.5 -4.4,3 -9.2,3.2 -13.4,0.3 -4.7,-3.3 -8.9,-7.4 -13.9,-11.7 2.2,-0.2 3.8,-0.4 5.3,-0.6 0,0.1 -0.2,-0.1 -0.2,-0.1 z"
   class="st0" />
	<path
   id="path962"
   d="m 330.1,250.6 c 7.4,3.5 12,-3.5 18.2,-3.9 3.7,-0.2 7.4,-0.5 11.1,-0.5 2,0 3.2,1.7 2.6,3.6 -0.8,2.8 -2.2,0.6 -3.4,0.2 -4.7,-1.2 -9.8,0.1 -12.2,3 -4.7,6 -8.6,2.9 -13,0.5 -1.2,-0.7 -2.2,-1.9 -3.3,-2.9 z"
   class="st0" />
	<path
   id="path964"
   d="m 432.5,291.6 c -5.2,-0.4 -8.9,-0.3 -5.9,5.7 1.4,2.8 -0.4,6.5 -3.8,6.7 -2.9,0.1 -4.3,-2.9 -4.1,-6 0.2,-2.9 0.9,-5.7 2.6,-8 3.6,-5 7,-4.7 11.2,1.6 z"
   class="st0" />
	<path
   id="path966"
   d="m 441.5,216.7 c 0.5,0.5 1,1 1.6,1.5 -9.7,5.7 -22.4,3.2 -28.1,-6.3 8.1,5.3 17.2,5.8 26.5,4.8 z"
   class="st0" />
	<path
   id="path968"
   d="m 351.3,215.1 c -7.3,-2.8 -12.6,-4.9 -18,-6.8 -1.8,-0.6 -4.3,-0.4 -3.3,-3.2 0.8,-2.2 3.1,-2.8 5,-2 5.9,2.3 11.9,4.7 16.3,12 z"
   class="st0" />
	<path
   id="path970"
   d="m 359.9,242.2 c 6.2,0 11.4,0 16.5,0 1,0 1.9,0.3 1.7,1.3 -0.1,0.7 -0.8,1.5 -1.4,2 -5.5,4.4 -8.6,3.9 -16.8,-3.3 z"
   class="st0" />
	<path
   id="path972"
   d="m 441,243.6 c 4.9,0 8.9,0 13.3,0 -0.7,3.1 -1.9,5.7 -5.6,6.1 -4,0.5 -6,-2 -7.7,-6.1 z"
   class="st0" />
	<path
   id="path974"
   d="m 429.6,308.5 c -2.6,1.2 -5.3,2.3 -7.7,3.7 -2.9,1.6 -3.5,-1.2 -4.2,-2.3 -1.4,-2.1 1.7,-2.2 2.6,-2.5 2.8,-1.1 5.9,-0.8 9.3,1.1 z"
   class="st0" />
	<path
   id="path976"
   d="m 399.2,201.7 c -6.7,6.3 -12.1,12 -19,16.1 1.8,-8.1 8.9,-14.6 19,-16.1 z"
   class="st2" />
	<path
   id="path978"
   d="m 402,223.4 c 6,-2.6 6,-2.6 16.1,7 -2.9,1.9 -5.2,-1.2 -7.9,-0.8 -1.2,0.2 -2.4,-0.1 -2.8,-1.2 -0.6,-2.2 1.6,-0.8 2.3,-1.4 1.4,-1.2 1,-2.1 -0.7,-2.4 -2.1,-0.5 -4.4,0.5 -7,-1.2 z"
   class="st2" />
	<path
   id="path980"
   d="m 340.9,302.7 c 1.9,-3.7 5.5,-0.9 7.6,-2.7 -1.7,2.7 -4.2,3.5 -7.6,2.7 z"
   class="st2" />
</g>
</svg>
