<?xml version="1.0" encoding="utf-8"?>
<!-- Generator: Adobe Illustrator 22.0.1, SVG Export Plug-In . SVG Version: 6.00 Build 0)  -->
<svg version="1.1" id="Capa_1" xmlns="http://www.w3.org/2000/svg" xmlns:xlink="http://www.w3.org/1999/xlink" x="0px" y="0px"
	 viewBox="0 0 792 612" style="enable-background:new 0 0 792 612;" xml:space="preserve">
<style type="text/css">
	.st0{fill:#FFFFFF;}
	.st1{fill:#AF853C;}
	.st2{fill:#0A0A0A;}
</style>
<path class="st0" d="M315,390.3c-0.5-2.6,2.2-3.3,3.1-5.1c1.5-2.6,1.5-4.2-1.1-5.8c3.8-0.2,4.9,1.1,3,4.7
	C318.7,386.6,317.6,389.1,315,390.3z"/>
<path class="st0" d="M315.8,379.5c-1.3,1.9-3.4,0.5-5,1C312.1,378.4,314.2,379.9,315.8,379.5z"/>
<g>
	<path class="st0" d="M477.6,403.1c3.6,6.5,6.3,13.2,8.6,20.3c2.1,6.6-3.1,3.8-4.5,3.5c-4.1-1.1-7.6-3.6-11.5-5.4
		c-22.2-10.3-43.5-8.1-65.1,1.8c-15.9,7.3-32.9,12-49.6,17.3c-2.4,0.8-4,0.6-5.1-1.2c-1.3-2.3,1.5-1.9,2.5-2.7
		c9.2-7.8,19.8-13.9,29.7-20.8c0.5-2.8,3.4-4.4,4-7.1c1.8-8.6-1.2-16.8-2.4-25c-0.6-3.7-4.1-4-7.3-4.1c-6.5-0.1-13,0.2-19.4-1.3
		c-9.6-2.2-13.6-5.8-14.4-15c-0.5-6-5.2-9.7-7.3-14.7c-2-4.9-4.3-8.9-11.1-9c-3.7,0-5.4-3.4-5.8-6.8c-0.4-3.8-0.8-7.7-0.1-11.4
		c2.4-11.7-0.4-23.1-2.2-34.5c-0.8-5.3-0.8-10.5-0.4-15.8c0.1-1.4,0.3-3.2,2.3-3.3c1.6,0,2.2,1.5,2.3,2.7c2.4,14.2,9.6,27.8,6,42.8
		c-1.1,4.3-0.5,8.8-0.5,13.3c0,3.8,2,5.4,6,4.7c2.2-0.4,4.4-0.7,6.7-0.8c6.8-0.1,7.7,0.9,6,7.2c-0.7,2.7,0,4,2.6,4.8
		c1.1,0.3,2.2,0.6,3.2,1c2.4,1,6.1,0.8,6.2,3.9c0.1,3.1-3.4,2.7-5.6,3.3c-2.8,0.8-3.3,1.9-1,3.8c2.1,1.7,2.2,3.9,2.1,6.3
		c-0.4,7.9,2.7,10.7,11.1,9.8c8.8-0.9,17.1-3.6,25.1-6.8c8.9-3.6,17.4-7.7,24.5-14.1c5.1-4.6,8.8-10.1,11-16.4
		c1.1-3.2,1.9-5.6-2.4-7.8c-4.5-2.2-0.6-4.8,1.3-6.3c8.3-6.5,10.9-15.1,11.6-24.7c0.3-4.5-0.7-8.2-5.6-9.5c-4.5-1.3-7.6,1.5-9,4.9
		c-3.2,7.8-9.4,8.6-17.2,8.8c-10.9,0.3-20.2-2.1-28.6-8.7c-6.6-5.1-13.3-10-20-14.9c-3.5-2.5-6-5.5-1.3-9.2c1.1-0.7,2.3-1.3,3.5-1.9
		c1.8-0.8,3.4-2,5.2-2.9c8-4.1,18.3-1.3,22.6,6.1c0.8,1.3,1.7,2.8,0.5,4.1c-1.2,1.3-2.9,0.4-4.3-0.1c-9.1-3.4-9.1-3.4-14.2-2
		c3.6,1,6.4,0.4,9,0.8c2.7,0.4,4.6,1.7,5,4.3c0.4,3-2.4,2.9-4.8,3.8c6.7,5.7,11.1,14.4,22.3,12.4c-1.1,0.3-2.4,0.1-3.7-0.2
		c-1-0.3-2.3-0.5-2.2-1.9c0.1-1,1-1.5,1.9-1.6c10-1.4,15.8-8,21.6-14.9c2.9-3.4,7.1-5.1,11.9-4.8c2,0.1,4.3,0.3,5.1,2.4
		c0.8,2.4-1.5,3.2-3.1,4.3c-1.2,0.8-3,1-3.4,3.3c4.9,0.3,9.8,1.1,14.2,4.3c-1.9-2.3-2-4.2,0.8-5.1c4.9-1.6,9.9-2.8,15.1-1.7
		c5,1,5.6,2.8,2.3,6.4c-1.9,2-4,3.9-6,6.5c3.2,0.4,5.8,0.7,5.4-3.3c-0.4-3.2,2.7-4.1,4.2-6c1.7-2.1,3-4.2,3.6-7.2
		c-2.2,0.7-4.1,3.1-6.3,0.9c-2-2-0.5-3.9,0.5-5.8c2.9-5.5,7.1-9.8,13.4-11.8c5.3-1.7,7.7,0.3,6.7,5.6c-0.7,4-2.4,7.7-3.3,11.6
		c-0.6,2.6-1.3,5.3,0.3,7.9c1-1.4,1.2-2.9,1.1-4.2c-0.3-6.5,5.6-8.8,9.2-12.6c1.6-1.6,3.5-0.2,4.4,1.3c3.5,6.1,8.2,11,15.3,13.6
		c1.3,0.5,2.3,1.4,2.1,2.9c-0.3,1.8-1.5,3-3.5,3.5c-3.6,0.9-7.1-0.2-10.6-0.6c-8.6-0.9-10-0.2-10.8,7.8
		c-1.2,12.8-6.2,24.1-13.3,34.8c-0.8,1.3-1.4,2.8-2.6,3.7c-12.8,8.8-9,21.5-8,33.1c1.1,12.9,7,24.3,15.5,34.5
		C477.1,398.9,477.3,401,477.6,403.1z"/>
	<path class="st1" d="M387.5,410.7c-0.8,2.4-3,3.7-5,5.2c-10.6-3.3-21.6-4.8-32-8.9c-48-18.6-80.8-50.7-92.5-98.5
		c-10.4-42.1-1.9-81.7,27.4-116.2c24.5-28.8,56.2-46.4,94.9-52.8c42.3-7,81.5,0.3,117.1,22.8c34,21.4,55.8,51.3,63.4,89
		c7.8,38.8-1,75.1-25.9,107c-13.8,17.7-31.3,31.9-52.3,41.9c-1.7,0.8-3.8,1.2-5,2.8c-1.5-1.4-2.4-3.1-2.6-5.1c0-3.3,3.2-3.8,5.4-4.9
		c42.3-22.3,68.1-55.6,74.5-101c4.6-32.5-4-62.5-24.2-89.2c-25.8-34.1-61.4-52.8-105.2-58c-60.4-7.2-126.5,23.2-152.5,81
		c-21,46.6-14.3,91,18.5,131.2c22.2,27.3,52.2,43.1,87.6,50.4C382,408.1,385.3,408.1,387.5,410.7z"/>
	<path class="st2" d="M387.5,410.7c-35.7-5.3-66.6-19.6-91-44.9c-18.9-19.6-31.4-42.6-35.3-69.2c-5.7-38.7,4.6-73,31-103.2
		c23.4-26.8,53.5-42.4,89.3-48.7c44.3-7.8,84.6,2.1,120.1,27.4c30.1,21.4,48.6,50.2,54.2,85.9c6,37.7-4.5,71.1-29.1,100.9
		c-13,15.7-29,28.1-48.1,36.8c-1.3,0.6-2.5,1.6-3.8,2.4c-9-8.3-13.1-18.9-16-30.1c-2.3-9.1-1.1-18.3-1.4-27.5c-0.1-2.7,1-5,3-6.6
		c13.2-10.7,18.9-24.9,21.1-40.6c0.4-3.3,2.1-6.3,1.6-9.8c-0.4-2.9,2.3-1.8,3.8-2c5.3-0.6,10.5,0.6,15.8,1.2c2.2,0.2,4.7,0.5,5-2.5
		c0.3-2.6-2.5-1.5-3.6-1.9c-7.8-3.1-12.1-9-15.8-17.1c-1.4,3.4-2.3,5.8-3.2,8.1c-1.8-0.2,0-2.7-1.8-2.9c-2.2-0.3-1.3,1.6-1.9,2.5
		c-2.7,4.6-1.4,10.2-4.4,14.6c-5.4-4.8-3.4-10.4-1.7-15.8c0.9-2.7,1.9-5.4,2.4-8.2c0.2-1.5,2.1-3.2,0.2-4.3c-1.3-0.7-3.2,0.1-5,0.6
		c-7.3,2.1-9.9,8.3-13.9,13.4c-0.9,1.1-0.1,1.9,0.7,2.6c1.4,1.3,1.8-0.2,2.5-0.7c1.8-1.5,3.5-3.1,5.8-5.2c-0.7,8-3.4,14-11,17.8
		c2,0.2,3.5,0.4,5.6,0.7c-3.1,2.4-5.8,4.6-8.7,6.8c-1.8-0.2,0.2-2.7-1.6-3c-1.2-0.2-1.7,3-3.1,0.8c-0.9-1.4,0.7-2.7,1.8-3.7
		c2.9-2.6,5.9-5.1,9.3-8.1c-8.1-2.8-14.8-0.7-21.7,0.8c0.5,0.7,0.7,1.1,0.9,1.4c1.1,1.7,6.1-0.1,4.6,3.3c-1.5,3.4-5.2,0.9-6.7-0.5
		c-4.7-4.6-10.8-2.6-16.6-3.5c1.4-5.6,7.9-5.3,11.2-8.7c-8.3-2.4-13.3-1.4-17.3,4c-5.6,7.7-12.1,14.1-22.9,14.9c3.5,0,7,0,10.9,0
		c-6.6,5.4-12.9,5.4-19.3-0.2c-4.5-4-9.3-7.8-12.1-13.4c2.6,0,5,2.5,7.4,0.5c0.8-0.7-0.3-1.4-0.5-2.1c-1.1-3.8-4.3-2-6.6-2.2
		c-3.1-0.3-6.2-0.1-9.4-0.1c5.3-7.6,6.7-7.6,21.5-0.2c-4.2-9.4-14.9-15.1-23.9-7.5c-1,0.8-1.9,1.8-3.5,1.2c-0.8-2.3,1.2-3.4,2.5-4.7
		c3.3-3.2,1.1-4.3-2.1-4.6c-4.3-0.5-7.7,1.7-11.1,3.7c3.3-0.5,6.3-2.1,9.6-2.6c1.4-0.2,2.9-0.2,3.6,0.9c0.8,1.3-0.1,2.4-1,3.4
		c-1.5,1.8-3.8,3-4.4,5.4c-4,2.5-2.9,4.8,0.3,7c9.2,6.6,18.4,13.2,27.7,19.6c3.3,2.3,7.2,3.8,11.5,3.7c3.1,0,6.3-0.3,9.4,0
		c7.3,0.8,12.9-0.1,15.7-7.9c1.7-4.9,6.3-7.7,12.1-5.6c5.6,2,6.4,6,5.9,11.7c-0.7,7.8-2.9,14.7-7.1,21.3c-2.2,3.4-7.2,4-9,8
		c9,0.6,8.8,0.6,6.2,8.5c-4.5,13.6-14.8,22.1-27.6,28.5c-10.7,5.4-22.2,8.8-34,11.4c-10.8,2.4-15.9-2.6-13.8-13.1
		c0.5-2.4-0.1-4.2-3-4.5c-2.1-0.2-3.3-1.1-3.5-3.1c-0.4-3.3,2.9-2,4.3-2.6c2.2-1,5.1-0.8,8.8-1.2c-4.1-3.1-8.4-3.6-12.2-4.4
		c-4.6-0.9-6.5-1.5-2.7-5.6c1.4-1.5,1.9-3.6,2.8-5.5c-5.7-1.5-10.9,0.3-16.3,0.9c-3.7,0.4-4.8-0.7-5-4.4c-0.5-8.8,1.4-17.5,1.5-26.3
		c0.1-5.2-0.6-10.2-2.7-15.1c-2.7-6.2-2.6-13.1-4.8-20.6c-2,12.7,0.8,24,2.6,35.3c0.7,4.8,0.9,9.3,0,14.1c-1,5.1-0.3,10.5-0.4,15.7
		c-0.1,4.6,2.4,6.5,7,6.2c4.6-0.3,8.9-0.3,7.9,6c-0.1,0.6,0.8,1.4,1.1,2.1c3.3,6.3,8.9,11.3,8.6,19.6c-0.3,7,8.7,11.3,20.2,11.6
		c4.9,0.1,9.9,0.2,14.8,0c3.2-0.1,6,1.3,6.1,3.7c0.3,8.7,3.7,17.1,2.9,25.9C388.9,408.5,388,409.6,387.5,410.7z"/>
	<path class="st2" d="M427.7,404.4c1.6-5.8,3-10.6,4.4-15.5c0.3-1.1,2.3-2.1,0.7-3.2c-1.3-0.9-2.8-0.4-4.1,0.8
		c-4.2,4.1-8.4,8.2-12.8,12c-4.4,3.9-9.1,7.6-15.1,9.2c-1.8,0.5-3.3,1.1-3.7-1.7c-1.2-8.5-2.6-17-4-25.5c-0.5-3.1,1-5.2,3.8-6.6
		c10.6-5.4,21.2-10.9,31.9-16.3c4.7-2.4,7.8-1.2,10.5,3.2C446.2,372.1,443.5,395.5,427.7,404.4z"/>
	<path class="st0" d="M353.9,266.3c-1.7-1.6-2.4-2.8,0.6-4c1.9-0.8,3.4-2.6,6.3-4.8c-7.8,0.4-12.8,3.7-18.7,4.5
		c4.3-7.1,11.9-9.6,19.6-7.1c3.6,1.2,3,2.2,0.9,4.1c-2,1.9-3.9,4-5.8,6C356.3,266,355.2,266.3,353.9,266.3z"/>
	<path class="st2" d="M460.4,310.5c-0.1-8.5,2.7-14.5,7.2-19.9c0.8-0.9,1.7-2.2,3.3-1c0.6,0.5,1.6,1.6,1.5,1.9
		C468.5,297.3,468.3,305.2,460.4,310.5z"/>
	<path class="st2" d="M473.7,307.4c-2.4,3.6-2.4,6.5-6.3,7.1C468.2,311.6,469.5,309.6,473.7,307.4z"/>
	<path class="st0" d="M441.5,216.7c-0.5-0.7-0.9-1.4-1.5-2c-0.9-1.1-3.1-1.9-2.3-3.5c1.3-2.4,2.8,1.5,4.5,0.3
		c-3.8-4.9-4.6-5.1-10.8-3.8c-6.3,1.4-12.5-0.3-18.4-1.3c-5.5-1-9.6,0.3-13.8,2.8c-5.8,3.4-10.5,7.9-14,13.7
		c6.1,1.1,9.4-2.7,13.1-5.3c6.9-4.9,10.9-4.8,16.6,1.3c4.3,4.6,9.3,7.1,16.1,6.9c11.9-0.3,23.4,3.1,35.2,3.7
		c1.7,0.1,2.5,0.6,2.2,2.2c-0.2,1.3-0.7,1.9-2.2,1.3c-6.9-2.9-11.4,1.2-15.5,5.1c-2.7,2.7-5.6,2.9-9,2.8c-1.7,0-3.7-0.4-3.8-1.8
		c-0.2-1.4,1.6-2.2,3.4-2.1c1.2,0.1,2.5-0.1,4.4-0.2c-14.7-9.7-27.8,0.1-41.6,1.7c0.8-3.4,5.3-2.8,6-6.5c-3.4,0.1-6.5,0-10,0.9
		c-6.1,1.6-11.3-0.8-16-5c-10.6-9.2-18.6-20.4-27.2-31.1c-2.5-3.1-4.9-6.3-7.5-9.3c-2.3-2.6-5.2-2.6-7.7-0.2
		c-2.7,2.7,0.9,3.5,2.1,4.9c9.4,11.1,19.9,21.3,30.5,31.5c7.1,6.8,15.6,11.9,23.7,17.7c-7.1,0-14-1.5-20.6-3.7
		c-12.2-4.1-24.2-8.5-36.4-12.6c-13.4-4.5-21.2-0.3-24.4,12.8c-1.1,4.3-2.2,8.6-4.1,12.9c-1.5-7-2.5-14.2,1.8-20.7
		c3.3-5,6.8-10.2,14-11.2c1.4-0.2,3-1.2,3.8-2.2c2.7-3.4,5.3-2.1,8.6-0.8c11,4.1,20.7,10.7,32,15c-0.4-2.5-1.5-4.1-3.1-5.5
		c-9.1-7.6-15.8-17.5-25.7-24.4c-3-2.1-6.5-3.3-9.6-5.1c-6.1-3.7-5.7-10.5,0.9-13.8c11.2-5.7,15.5-4.8,23,7
		c3.5,5.6,6.3,5.6,11.7,2.6c4.9-2.7,9.9-5.8,16.2-6.9c-1.7,5.5-10,4.7-10.5,11.1c3.9-0.4,6.3-2.9,8.9-4.6c6.7-4.3,13.3-5.3,20.8-1.3
		c6.9,3.6,14.2,6.8,22.6,7c-9.3,2.2-18.2-0.5-26.8-2.2c-15.1-3.1-20,1.5-22.4,16.3c1.3-1.7,2.6-3.5,3.9-5.2c6.6-8.5,20-9.1,28.9-5.1
		c8.2,3.6,15.9,1.8,23.8,0.6c8-1.3,13.7,0.7,18.7,7c2.7,3.5,6,6.6,11.6,5.5c-7.1-5.5-14-10.8-21-16.1c-0.5-0.4-1.4-0.5-1.5-0.9
		c-1.9-5.4-1.9-5.4-8.7-5.5c-5.4,0-10.8-0.1-16.1,0c-4.1,0.1-7.6-1.6-11.2-3c-1.3-0.5-1.9-1.6-1.8-3.1c0.1-2,1.8-1.2,2.9-1.6
		c6.1-2.6,12.7,0.1,18.8-2c1.1-0.4,2.1,0.7,2.4,1.8c0.6,2.6-3.4,0.4-3.2,2.9c14.8-1.8,24.6,4.4,32.6,16.1c5,7.3,13.5,12.4,17.6,20.8
		c0.7,1.5,2,1.8,4.2,1.2c3.2-0.9,5.8-2.8,9-3.7c1.4,2.9-0.5,4.3-3.3,5.2c1.8,1.9,3.3-0.2,4.9,0.1c0.1,0.5,0.2,1.2,0.1,1.3
		c-10.6,4.6-8.6,13.2-8,21.5c0.1,1.4,1.2,3.5-1.1,4.4c-2.1,0.8-3.2-0.8-4.5-2c-4.2-3.5-4.2-3.5-13.4-2.2c1.9-4.6,5.3-6.6,10.3-5.9
		c0.7-2.5-8-4.9,0.3-7.2c1.5-0.4-0.6-3.9-1.8-5.3c-2.8-3.2-6.3-6-9.4-9c-1.3-1.3-2.9-1.8-4.1-0.9c-6.8,5.5-11.6,1.1-16.5-2.8
		C441.5,218.7,441.1,218,441.5,216.7z"/>
	<path class="st0" d="M507.5,231.6c-4.6,1.1-8.1,2.1-11.6,2.9c-1,0.2-2.8,0-3-0.6c-0.7-1.4,0.6-2.5,1.8-2.9c3-1.1,6.1-2.2,9.2-2.7
		c4.5-0.8,5-2.7,2.2-6c9.4,3,10.8,10.1,3.7,16.9c-1.1,1-2.2,2.2-3.5,2.8c-1.2,0.6-2.8,1.1-2.4,2.4c0.5,1.5,2.4,1.9,4,1.5
		c3.1-0.8,6-2.2,8.7-4c2.5-1.7,5.4-1.8,7.8,0.5c0.3,0.3,0.2,0.8,0.5,1.1c2.3,2-3.7,4.6,1,6.9c3.2,1.6,3.6,5.5,2.8,9
		c-5,0-3.6-10-11.4-6c-4.1,2.1-8.9,3-13.4,4.5c1.2,3.3,8.3,0.1,6.7,6.7c4-3.2,4.6-7.9,9.3-9.8c1.6,2.3,0.6,4.9,0.9,7.2
		c0.2,1.4,0,3.1,0.7,4.2c1,1.7,5.4,2.3,2.8,4.9c-2.7,2.7-4.6,6.6-9.8,6.7c-8.1,0.1-14.8-1.4-17.4-9.9c4.2-1.3,6.1,3.1,9.6,3.8
		c1.5,0.3,3,1.7,3.8-0.2c1-2.5-1.8-0.9-2.7-1.7c-6-5-13.9-8.3-15.8-16.8c-0.1-0.3-0.9-0.6-1.4-0.6c-1.9,0-2.2-1.1-2-2.5
		c0.4-2.3,2.6-1.6,3.7-1.3c2.5,0.9,5,1.6,8.8,0.5c-4.8-1.2-8.5-2.7-12.4-3.1c-3.7-0.4-4.3-2.1-4.3-5c0-3.6,2.3-3.8,5.3-4.1
		C495.8,236.5,503,239.9,507.5,231.6z"/>
	<path class="st0" d="M386.1,267.9c11.9,6.5,20.5,2.8,28.2-4.5c2.2-2.1,4.1-4.8,6.7-6.1c4.3-2.2,5.4-4.3,1.1-7.7
		c8-3.5,11.6,1.8,15,6c6.8,8.4,11,10.1,21,7.1c-2.6,9.5-5.5,12.2-12.7,11.1c-4-0.6-6.9-3.3-9.7-5.9c-8.6-8-14.5-7.5-21.2,2.1
		c-2,2.9-3.9,5.9-5.9,8.7c-0.7,1-1.8,1.8-2.8,2.7c-2.5,2.1-5.5,2.3-7.7,0.2c-3.6-3.3,3.8-2.1,2.2-4.8
		C390.7,275.8,389.9,275.3,386.1,267.9z"/>
	<path class="st0" d="M383.5,256c-1.3-2.9-5.3,0.7-6.7-3c10.7-2.4,21.2-4.7,32.9-7.3c-3.6,4-7.7,5.5-12.7,8.2
		c7.2,0.4,11.2-2.6,14-6.4c10.3-13.8,22.8-10.1,29.6,0.7c1.2,1.9,3.5,3.2,5,5c3.6,4.3,7.4,3.6,11.3,0.5c1.4-1.1,2.5-2.4,3.9-3.5
		c0.8-0.7,1.7-0.3,2.3,0.4c0.5,0.5,1.6,1.1,0.5,1.9c-3.9,2.7-4.9,8.6-11.1,8.8c-5.4,0.2-9.2-1.5-11.7-6.3c-1.4-2.7-4.1-4.8-6-7.4
		c-5.3-7.4-13.3-7.5-18.9-0.2c-3,3.9-6,7.8-11,10.1c-4.5,2-8.6,0.5-12.6-0.3c-3-0.6-6.1-0.6-9-1.4L383.5,256z"/>
	<path class="st0" d="M335.8,287.4c10.2,0.9,17.5,3.3,25,5.3c4.4,1.2,3,2.8,0.9,3.7c-5.9,2.5-9.8,6.9-14.2,11
		c-1.7,1.6-4.7,1.5-6.2,0.4c-5.3-3.8-9.9-8.9-11.9-14.4C327.9,289.6,332.9,286.5,335.8,287.4z"/>
	<path class="st0" d="M326,240.4c3.7-4.4,7.6-0.3,11.3-0.8c-3.7-5.3-3.7-5.3-12-3.9c5.1-7.7,7-8.1,13.4-2.3c3.4,3.2,6.5,4.4,11.4,2
		c8.4-4,12.3-2.3,15.6,6c-5.9-3.7-11.1-2.8-16.4,0.5c-5.6,3.5-11.7,4.6-17.4,0.1C330.2,240.6,328.1,241.5,326,240.4z"/>
	<path class="st0" d="M383.3,255.8c6.4,2.5,11.3,8.4,19.5,6.8c3.3-0.6,5.3-3.2,9-4.2c-1.5,4-3.1,7.3-6.3,9.5
		c-4.4,3-9.2,3.2-13.4,0.3c-4.7-3.3-8.9-7.4-13.9-11.7c2.2-0.2,3.8-0.4,5.3-0.6C383.5,256,383.3,255.8,383.3,255.8z"/>
	<path class="st0" d="M330.1,250.6c7.4,3.5,12-3.5,18.2-3.9c3.7-0.2,7.4-0.5,11.1-0.5c2,0,3.2,1.7,2.6,3.6c-0.8,2.8-2.2,0.6-3.4,0.2
		c-4.7-1.2-9.8,0.1-12.2,3c-4.7,6-8.6,2.9-13,0.5C332.2,252.8,331.2,251.6,330.1,250.6z"/>
	<path class="st0" d="M432.5,291.6c-5.2-0.4-8.9-0.3-5.9,5.7c1.4,2.8-0.4,6.5-3.8,6.7c-2.9,0.1-4.3-2.9-4.1-6c0.2-2.9,0.9-5.7,2.6-8
		C424.9,285,428.3,285.3,432.5,291.6z"/>
	<path class="st0" d="M441.5,216.7c0.5,0.5,1,1,1.6,1.5c-9.7,5.7-22.4,3.2-28.1-6.3C423.1,217.2,432.2,217.7,441.5,216.7z"/>
	<path class="st0" d="M351.3,215.1c-7.3-2.8-12.6-4.9-18-6.8c-1.8-0.6-4.3-0.4-3.3-3.2c0.8-2.2,3.1-2.8,5-2
		C340.9,205.4,346.9,207.8,351.3,215.1z"/>
	<path class="st0" d="M359.9,242.2c6.2,0,11.4,0,16.5,0c1,0,1.9,0.3,1.7,1.3c-0.1,0.7-0.8,1.5-1.4,2
		C371.2,249.9,368.1,249.4,359.9,242.2z"/>
	<path class="st0" d="M441,243.6c4.9,0,8.9,0,13.3,0c-0.7,3.1-1.9,5.7-5.6,6.1C444.7,250.2,442.7,247.7,441,243.6z"/>
	<path class="st0" d="M429.6,308.5c-2.6,1.2-5.3,2.3-7.7,3.7c-2.9,1.6-3.5-1.2-4.2-2.3c-1.4-2.1,1.7-2.2,2.6-2.5
		C423.1,306.3,426.2,306.6,429.6,308.5z"/>
	<path class="st2" d="M399.2,201.7c-6.7,6.3-12.1,12-19,16.1C382,209.7,389.1,203.2,399.2,201.7z"/>
	<path class="st2" d="M402,223.4c6-2.6,6-2.6,16.1,7c-2.9,1.9-5.2-1.2-7.9-0.8c-1.2,0.2-2.4-0.1-2.8-1.2c-0.6-2.2,1.6-0.8,2.3-1.4
		c1.4-1.2,1-2.1-0.7-2.4C406.9,224.1,404.6,225.1,402,223.4z"/>
	<path class="st2" d="M340.9,302.7c1.9-3.7,5.5-0.9,7.6-2.7C346.8,302.7,344.3,303.5,340.9,302.7z"/>
</g>
</svg>
